# AST/ASF file generated using VICON BodyLanguage
# -----------------------------------------------
:version 1.10
:name VICON
:units
  mass 1.0
  length 0.45
  angle deg
:documentation
   .ast/.asf automatically generated from VICON data using
   VICON BodyBuilder and BodyLanguage model FoxedUp or BRILLIANT.MOD
:root
   order TX TY TZ RX RY RZ
   axis XYZ
   position 0 0 0  
   orientation 0 0 0 
:bonedata
  begin
     id 1 
     name lhipjoint
     direction 0.662698 -0.695252 0.27831 
     length 2.53073 
     axis 0 0 0  XYZ
  end
  begin
     id 2 
     name lfemur
     direction 0.34202 -0.939693 0  
     length 7.16147  
     axis 0 0 20  XYZ
    dof rx ry rz
    limits (-160.0 20.0)
           (-70.0 70.0)
           (-60.0 70.0)
  end
  begin
     id 3 
     name ltibia
     direction 0.34202 -0.939693 0   
     length 7.63967   
     axis 0 0 20   XYZ
    dof rx
    limits (-10.0 170.0)
  end
  begin
     id 4 
     name lfoot
     direction 0.0938457 -0.257721 0.961651   
     length 1.89793   
     axis -90 7.62852e-016 20   XYZ
    dof rx rz
    limits (-45.0 90.0)
           (-70.0 20.0)
  end
  begin
     id 5 
     name ltoes
     direction -0.00116841 -0.0030592 0.999995   
     length 0.955649   
     axis -90 7.62852e-016 20   XYZ
    dof rx
    limits (-90.0 20.0)
  end
  begin
     id 6 
     name rhipjoint
     direction -0.649445 -0.705948 0.282592   
     length 2.49238  
     axis 0 0 0  XYZ 
  end
  begin
     id 7 
     name rfemur
     direction -0.34202 -0.939693 0   
     length 6.90728   
     axis 0 0 -20   XYZ
    dof rx ry rz
    limits (-160.0 20.0)
           (-70.0 70.0)
           (-70.0 60.0)
  end
  begin
     id 8 
     name rtibia
     direction -0.34202 -0.939693 0   
     length 7.72868   
     axis 0 0 -20   XYZ
    dof rx
    limits (-10.0 170.0)
 end
 begin
     id 9 
     name rfoot
     direction -0.0920068 -0.252865 0.963117   
     length 1.97476  
     axis -90 -7.62852e-016 -20   XYZ
    dof rx rz
    limits (-45.0 90.0)
           (-20.0 70.0)
  end
  begin
     id 10 
     name rtoes
     direction 0.000391322 0.00230649 0.999997   
     length 0.992641   
     axis -90 -7.62852e-016 -20   XYZ
    dof rx
    limits (-90.0 20.0)
  end
  begin
     id 11 
     name lowerback
     direction -0.00875327 0.998321 -0.0572635   
     length 2.20024   
     axis 0 0 0   XYZ
    dof rx ry rz
    limits (-20.0 45.0)
           (-30.0 30.0)
           (-30.0 30.0)
  end
  begin
     id 12 
     name upperback
     direction 0.00753931 0.999972 -0.000360425   
     length 2.20538   
     axis 0 0 0   XYZ
    dof rx ry rz
    limits (-20.0 45.0)
           (-30.0 30.0)
           (-30.0 30.0)
  end
  begin
     id 13 
     name thorax
     direction 0.0117767 0.999601 0.0256663   
     length 2.21508   
     axis 0 0 0   XYZ
    dof rx ry rz
    limits (-20.0 45.0)
           (-30.0 30.0)
           (-30.0 30.0)
  end
  begin
     id 14 
     name lowerneck
     direction 0.060228 0.994909 0.0807986   
     length 1.7607   
     axis 0 0 0   XYZ
    dof rx ry rz
    limits (-20.0 45.0)
           (-30.0 30.0)
           (-30.0 30.0)
  end
  begin
     id 15 
     name upperneck
     direction -0.0563647 0.959594 -0.275685   
     length 1.75612   
     axis 0 0 0   XYZ
    dof rx ry rz
    limits (-20.0 45.0)
           (-30.0 30.0)
           (-30.0 30.0)
  end
  begin
     id 16
     name head
     direction -0.0161544 0.99458 -0.102714  
     length 1.79288  
     axis 0 0 0   XYZ
    dof rx ry rz
    limits (-20.0 45.0)
           (-30.0 30.0)
           (-30.0 30.0)
  end
  begin
     id 17 
     name lclavicle
     direction 0.93913 0.332189 -0.087669  
     length 3.52087  
     axis 0 0 0   XYZ
    dof ry rz
    limits (-20.0 10.0)
           (0.0 20.0)
  end
  begin
     id 18 
     name lhumerus
     direction 1 -4.48974e-011 -2.70836e-027   
     length 5.35289   
     axis -180 -30 -90   XYZ
    dof rx ry rz
    limits (-60.0 90.0)
           (-90.0 90.0)
           (-90.0 90.0)
  end
  begin
     id 19
     name lradius
     direction 1 -4.48961e-011 -9.76021e-027   
     length 3.27727   
     axis -180 -30 -90   XYZ
    dof rx
    limits (-10.0 170.0)
  end
  begin
     id 20
     name lwrist
     direction 1 -4.49103e-011 -2.23668e-026   
     length 1.63864   
     axis 1.44924e-014 90 90   XYZ
    dof ry
    limits (-180.0 0.0)
 end
  begin
     id 21 
     name lhand
     direction 1 3.0697e-005 0.000161777   
     length 0.54443   
     axis 2.85318e-014 90 90   XYZ
    dof rx rz
    limits (-90.0 90.0)
           (-45.0 45.0)
  end
  begin
     id 22 
     name lfingers
     direction 1 -4.49027e-011 -8.9447e-026   
     length 0.438912   
     axis 5.70628e-014 90 90   XYZ
    dof rx
    limits (0.0 90.0)
  end
  begin
     id 23
     name lthumb
     direction 0.707058 2.6516e-005 0.707156   
     length 0.630274   
     axis -90 45 -3.53137e-014   XYZ
    dof rx rz
    limits (-45.0 45.0)
           (-45.0 45.0)
  end
  begin
     id 24 
     name rclavicle
     direction -0.95274 0.284984 -0.105215   
     length 3.43401  
     axis 0 0 0   XYZ 
    dof ry rz
    limits (-10.0 20.0)
           (-20.0 0.0)
  end
  begin
     id 25 
     name rhumerus
     direction -0.999999 -0.000575019 -0.00106829  
     length 5.52077   
     axis -180 30 90   XYZ
    dof rx ry rz
    limits (-90.0 60.0)
           (-90.0 90.0)
           (-90.0 90.0)
  end
  begin
     id 26 
     name rradius
     direction -1 -4.4879e-011 -6.35415e-027   
     length 3.32364   
     axis -180 30 90   XYZ
    dof rx
    limits (-10.0 170.0)
  end
  begin
     id 27 
     name rwrist
     direction -1 -4.49048e-011 -9.98542e-027   
     length 1.66182   
     axis 6.32482e-015 -90 -90   XYZ
    dof ry
    limits (-180.0 0.0)
  end
  begin
     id 28
     name rhand
     direction -1 -4.48978e-011 -1.99771e-026   
     length 0.732235   
     axis 1.27479e-014 -90 -90   XYZ
    dof rx rz
    limits (-90.0 90.0)
           (-45.0 45.0)
  end
  begin
     id 29
     name rfingers
     direction -1 -4.49144e-011 -3.99245e-026   
     length 0.590347   
     axis 2.5496e-014 -90 -90   XYZ
    dof rx
    limits (0.0 90.0)
  end
  begin
     id 30
     name rthumb
     direction -0.707107 -6.35121e-011 0.707107   
     length 0.847624   
     axis -90 -45 -2.82974e-014   XYZ
    dof rx rz
    limits (-45.0 45.0)
           (-45.0 45.0)
  end
:hierarchy
  begin
    root lhipjoint rhipjoint lowerback
    lhipjoint lfemur
    lfemur ltibia
    ltibia lfoot
    lfoot ltoes
    rhipjoint rfemur
    rfemur rtibia
    rtibia rfoot
    rfoot rtoes
    lowerback upperback
    upperback thorax
    thorax lowerneck lclavicle rclavicle
    lowerneck upperneck
    upperneck head
    lclavicle lhumerus
    lhumerus lradius
    lradius lwrist
    lwrist lhand lthumb
    lhand lfingers
    rclavicle rhumerus
    rhumerus rradius
    rradius rwrist
    rwrist rhand rthumb
    rhand rfingers
  end

#!OML:ASF G:\Work\Work\Patient Classification 1\Elijah\terrain1\Elijah.ASF
:FULLY-SPECIFIED
:DEGREES
201
root 15.9716 19.5294 9.52775 6.41799 -4.15636 -2.3854
lowerback 7.32345 1.37103 0.369623
upperback 0.753503 1.83382 -0.518901
thorax -3.29702 0.9023 -0.926768
lowerneck -12.306 15.0279 11.2668
upperneck 32.4969 25.6717 -15.7596
head 18.0715 10.3454 -3.39364
rclavicle -8.54774e-015 8.34896e-015
rhumerus -43.0748 3.82112 -91.1878
rradius 60.3585
rwrist -4.16607
rhand -13.4695 24.1382
rfingers 7.12502
rthumb 12.6406 -5.45933
lclavicle -8.54774e-015 8.34896e-015
lhumerus -39.0299 9.70096 81.2974
lradius 65.0348
lwrist -2.33742
lhand -11.8049 21.0182
lfingers 7.12502
lthumb 14.245 50.5096
rfemur -29.2308 -4.28212 21.1019
rtibia 101.368
rfoot 4.76424 10.1567
rtoes -11.0308
lfemur -19.5485 -5.47776 -22.1364
ltibia 34.0711
lfoot -16.8427 -4.3044
ltoes -2.83449
202
root 15.9696 19.5751 9.59783 6.44096 -4.15592 -1.8508
lowerback 7.21712 1.36691 -0.128066
upperback 0.767711 1.78489 -0.628553
thorax -3.23549 0.884228 -0.752743
lowerneck -12.2956 15.1342 11.2618
upperneck 32.4673 25.8671 -15.8237
head 18.1101 10.418 -3.36656
rclavicle -1.25234e-014 1.35174e-014
rhumerus -42.9635 3.76811 -91.2102
rradius 60.2128
rwrist -4.53986
rhand -13.5005 23.8404
rfingers 7.12502
rthumb 12.6107 -5.75898
lclavicle -1.25234e-014 1.35174e-014
lhumerus -39.2095 9.62302 81.4709
lradius 66.2957
lwrist -1.48721
lhand -11.3927 21.4508
lfingers 7.12502
lthumb 14.6422 50.9139
rfemur -29.8346 -4.88142 20.4841
rtibia 101.925
rfoot 3.2624 9.94566
rtoes -13.6158
lfemur -18.4939 -5.53552 -22.7534
ltibia 32.4095
lfoot -16.6322 -4.157
ltoes -4.07221
203
root 15.9757 19.6261 9.66915 6.46148 -3.90757 -1.3566
lowerback 7.37669 1.30763 -0.400107
upperback 0.579787 1.67598 -0.790823
thorax -3.52332 0.83202 -0.764374
lowerneck -12.1771 15.0751 11.0504
upperneck 32.5443 25.7113 -15.4963
head 17.9653 10.3748 -3.24848
rclavicle 7.95139e-015 1.35174e-014
rhumerus -43.2106 3.57335 -91.2804
rradius 60.0563
rwrist -4.65824
rhand -13.765 23.9023
rfingers 7.12502
rthumb 12.3557 -5.71259
lclavicle 7.95139e-015 1.35174e-014
lhumerus -39.7135 9.33843 81.5229
lradius 67.3152
lwrist -0.49426
lhand -10.8532 21.8216
lfingers 7.12502
lthumb 15.1619 51.2461
rfemur -30.2528 -5.68271 19.8633
rtibia 102.276
rfoot 1.61874 9.88849
rtoes -13.7338
lfemur -17.3681 -5.71983 -23.3571
ltibia 30.6663
lfoot -15.9556 -4.25451
ltoes -3.13207
204
root 15.9829 19.6716 9.73206 6.50864 -3.73853 -0.915762
lowerback 7.59401 1.28432 -0.579317
upperback 0.37213 1.61815 -0.98564
thorax -3.86012 0.803955 -0.868526
lowerneck -11.8674 15.0787 11.2979
upperneck 32.5147 25.6938 -15.551
head 17.9277 10.4167 -3.33507
rclavicle -2.41523e-014 -6.36111e-015
rhumerus -43.4047 3.30612 -91.3639
rradius 59.9695
rwrist -4.76095
rhand -13.8922 23.8928
rfingers 7.12502
rthumb 12.233 -5.72946
lclavicle -2.41523e-014 -6.36111e-015
lhumerus -40.1029 8.95222 81.4806
lradius 67.9441
lwrist 0.46897
lhand -10.3677 22.5186
lfingers 7.12502
lthumb 15.6295 51.9072
rfemur -30.8802 -6.34077 19.3507
rtibia 102.53
rfoot 0.0350867 9.9672
rtoes -12.0784
lfemur -16.2847 -5.86739 -23.9093
ltibia 28.9254
lfoot -15.6757 -4.07867
ltoes -4.97469
205
root 15.9818 19.7116 9.78489 6.59386 -3.77825 -0.691171
lowerback 7.47836 1.23995 -0.814544
upperback 0.486865 1.54219 -0.976807
thorax -3.68361 0.77051 -0.714364
lowerneck -11.8678 15.3694 11.6147
upperneck 32.2627 26.2128 -16.0067
head 18.0763 10.6214 -3.42487
rclavicle -1.17283e-014 5.1684e-015
rhumerus -43.0309 3.40711 -91.3383
rradius 59.8619
rwrist -4.96963
rhand -13.8155 23.6097
rfingers 7.12502
rthumb 12.307 -6.0081
lclavicle -1.17283e-014 5.1684e-015
lhumerus -39.6883 9.01412 81.5392
lradius 68.1551
lwrist 1.3163
lhand -10.3639 21.9044
lfingers 7.12502
lthumb 15.6331 51.2927
rfemur -31.8864 -6.71801 19.2739
rtibia 102.817
rfoot -1.59003 9.68451
rtoes -10.511
lfemur -15.3871 -5.82704 -24.1697
ltibia 27.2973
lfoot -14.7925 -4.10727
ltoes -3.34221
206
root 15.9709 19.7391 9.83122 6.76008 -3.91507 -0.754093
lowerback 7.24478 1.20029 -0.968285
upperback 0.688075 1.48993 -0.779467
thorax -3.35402 0.747951 -0.410021
lowerneck -12.3199 15.5647 11.2346
upperneck 32.1196 26.5716 -16.0599
head 18.1266 10.6862 -3.25242
rclavicle 4.32357e-015 5.1684e-015
rhumerus -42.5491 3.62368 -91.209
rradius 59.7497
rwrist -5.02781
rhand -13.8631 23.4329
rfingers 7.12502
rthumb 12.2611 -6.18771
lclavicle 4.32357e-015 5.1684e-015
lhumerus -39.1504 9.15681 81.7048
lradius 68.4537
lwrist 2.15321
lhand -10.5253 20.7397
lfingers 7.12502
lthumb 15.4778 50.1401
rfemur -33.1901 -6.88398 19.7013
rtibia 103.154
rfoot -2.86055 9.01216
rtoes -11.7376
lfemur -14.5025 -5.47822 -24.1184
ltibia 25.7101
lfoot -13.8572 -3.95219
ltoes -4.39775
207
root 15.962 19.7138 9.8624 6.90133 -3.98946 -0.419874
lowerback 7.37029 1.20778 -1.41715
upperback 0.588373 1.46166 -0.728906
thorax -3.54007 0.741305 -0.107709
lowerneck -12.3511 15.541 11.0077
upperneck 32.2095 26.6187 -16.0629
head 18.1541 10.6729 -3.21122
rclavicle -1.30204e-014 6.75868e-015
rhumerus -42.5096 3.59581 -91.0299
rradius 59.6462
rwrist -4.98603
rhand -14.0246 23.4009
rfingers 7.12502
rthumb 12.1054 -6.22895
lclavicle -1.30204e-014 6.75868e-015
lhumerus -39.4973 8.85931 81.7764
lradius 69.1588
lwrist 3.18762
lhand -10.6102 20.1993
lfingers 7.12502
lthumb 15.396 49.606
rfemur -34.8206 -7.20338 19.6023
rtibia 103.797
rfoot -3.75713 8.49446
rtoes -15.5843
lfemur -13.3151 -4.9767 -24.6406
ltibia 24.1273
lfoot -13.8212 -3.05549
ltoes -13.8806
208
root 15.9605 19.7314 9.89407 7.00723 -4.11729 0.171015
lowerback 7.66181 1.2286 -2.05845
upperback 0.414519 1.42219 -0.802721
thorax -3.89727 0.733898 0.170524
lowerneck -11.8504 15.6021 11.4071
upperneck 32.0634 26.8248 -16.5535
head 18.2045 10.7959 -3.45924
rclavicle 2.94698e-014 -8.15017e-015
rhumerus -42.4893 3.61327 -90.9051
rradius 59.4513
rwrist -5.10449
rhand -14.2303 23.5424
rfingers 7.12502
rthumb 11.9071 -6.099
lclavicle 2.94698e-014 -8.15017e-015
lhumerus -39.3263 8.6901 81.8034
lradius 69.1793
lwrist 3.93747
lhand -10.4879 19.8226
lfingers 7.12502
lthumb 15.5137 49.2202
rfemur -36.3186 -7.47608 19.0782
rtibia 104.036
rfoot -4.37289 8.33737
rtoes -16.5763
lfemur -12.4277 -4.91966 -25.3018
ltibia 22.4434
lfoot -13.2368 -3.01366
ltoes -15.051
209
root 15.9679 19.7647 9.96151 7.12146 -4.16139 0.316977
lowerback 7.34237 1.1847 -2.03674
upperback 0.539508 1.37553 -0.84239
thorax -3.58627 0.70763 0.131297
lowerneck -11.4378 15.7223 11.8914
upperneck 31.5311 27.0637 -17.2328
head 18.1353 10.9363 -3.76799
rclavicle -2.13197e-014 1.09332e-014
rhumerus -42.2058 3.60569 -90.835
rradius 59.2385
rwrist -5.13056
rhand -14.3897 23.7591
rfingers 7.12502
rthumb 11.7533 -5.89118
lclavicle -2.13197e-014 1.09332e-014
lhumerus -39.0068 8.48436 81.7479
lradius 69.353
lwrist 4.38253
lhand -10.1228 20.5729
lfingers 7.12502
lthumb 15.8654 49.9429
rfemur -37.2146 -7.6608 18.9355
rtibia 103.737
rfoot -5.34463 8.30663
rtoes -15.0541
lfemur -11.4662 -4.79729 -25.5458
ltibia 20.923
lfoot -12.7979 -3.13111
ltoes -15.301
210
root 15.9654 19.7995 10.0207 7.16738 -4.27858 0.417789
lowerback 7.4298 1.17691 -2.09501
upperback 0.493602 1.35669 -0.848613
thorax -3.68371 0.699981 0.156948
lowerneck -11.3298 15.8292 11.9878
upperneck 31.3097 27.21 -17.3662
head 18.0717 11.0123 -3.79623
rclavicle 7.25564e-015 1.19271e-015
rhumerus -42.2422 3.47751 -90.741
rradius 59.1861
rwrist -4.94211
rhand -14.4757 23.7879
rfingers 7.12502
rthumb 11.6704 -5.86709
lclavicle 7.25564e-015 1.19271e-015
lhumerus -39.1285 8.16249 81.6326
lradius 69.6446
lwrist 4.71815
lhand -9.75378 23.4994
lfingers 7.12502
lthumb 16.2207 52.8408
rfemur -38.1974 -7.83959 19.0313
rtibia 103.402
rfoot -6.33027 7.83939
rtoes -14.7968
lfemur -10.5184 -4.48815 -25.6937
ltibia 19.3955
lfoot -12.2625 -3.66169
ltoes -5.97145
211
root 15.9537 19.894 10.0766 7.20791 -4.46365 0.0376109
lowerback 8.14627 1.20415 -1.88501
upperback 0.121719 1.39392 -0.652694
thorax -4.47254 0.722684 0.216725
lowerneck -11.4648 15.97 11.5881
upperneck 31.5132 27.3482 -16.8213
head 18.0192 11.0583 -3.4605
rclavicle -8.19987e-015 -3.77691e-015
rhumerus -42.8078 3.27817 -90.593
rradius 59.286
rwrist -4.74507
rhand -14.6111 23.8803
rfingers 7.12502
rthumb 11.5398 -5.78204
lclavicle -8.19987e-015 -3.77691e-015
lhumerus -39.6155 7.82618 81.4902
lradius 69.7157
lwrist 5.12004
lhand -10.2753 21.4339
lfingers 7.12502
lthumb 15.7185 50.8155
rfemur -39.0196 -7.75076 19.9398
rtibia 102.51
rfoot -7.05304 6.87139
rtoes -16.5305
lfemur -10.0915 -4.28357 -25.1438
ltibia 18.0294
lfoot -10.8416 -4.21732
ltoes -2.39662
212
root 15.9554 19.8938 10.104 7.25089 -4.34917 0.308162
lowerback 8.07953 1.11705 -1.99811
upperback 0.48012 1.27266 -0.696039
thorax -4.06138 0.660019 0.256085
lowerneck -11.5831 16.1604 12.1552
upperneck 31.2062 27.7473 -17.5671
head 18.2914 11.206 -3.72332
rclavicle -6.4605e-015 9.14409e-015
rhumerus -42.021 2.95179 -90.3486
rradius 59.0773
rwrist -4.61662
rhand -14.6486 24.092
rfingers 7.12502
rthumb 11.5037 -5.57233
lclavicle -6.4605e-015 9.14409e-015
lhumerus -38.4782 7.64692 81.476
lradius 69.2481
lwrist 5.41593
lhand -10.2471 20.4521
lfingers 7.12502
lthumb 15.7457 49.8316
rfemur -40.3779 -8.15455 19.9131
rtibia 102.209
rfoot -7.7579 6.44463
rtoes -17.5646
lfemur -9.21371 -4.0447 -25.48
ltibia 16.632
lfoot -10.1539 -4.41279
ltoes -9.43497
213
root 15.953 19.9586 10.1628 7.22919 -4.51067 0.538525
lowerback 8.05123 1.09676 -2.29188
upperback 0.670817 1.22409 -0.666477
thorax -3.85338 0.638505 0.460164
lowerneck -11.5455 16.323 12.4214
upperneck 30.9323 28.0594 -18.0127
head 18.3837 11.3303 -3.85346
rclavicle -1.93815e-015 9.93923e-015
rhumerus -41.6092 2.84156 -90.1289
rradius 58.7854
rwrist -4.58885
rhand -14.6566 23.9645
rfingers 7.12502
rthumb 11.4959 -5.70028
lclavicle -1.93815e-015 9.93923e-015
lhumerus -37.9802 7.56963 81.3442
lradius 69.0245
lwrist 5.48344
lhand -9.2256 24.2425
lfingers 7.12502
lthumb 16.7293 53.5417
rfemur -41.269 -8.1886 19.8621
rtibia 101.39
rfoot -8.09663 5.99643
rtoes -16.5515
lfemur -8.70599 -3.86995 -25.6775
ltibia 15.3515
lfoot -8.3689 -4.96344
ltoes -7.4129
214
root 15.9552 19.9948 10.2375 7.16159 -4.66419 0.745291
lowerback 8.01643 1.06802 -2.48548
upperback 0.654831 1.17017 -0.646379
thorax -3.8535 0.615235 0.596161
lowerneck -11.0079 16.3856 12.7238
upperneck 30.7713 28.2028 -18.3052
head 18.3417 11.4461 -4.01967
rclavicle -1.95803e-014 1.41137e-014
rhumerus -41.755 2.84662 -89.9623
rradius 58.6238
rwrist -4.77716
rhand -14.9075 23.5912
rfingers 7.12502
rthumb 11.254 -6.08695
lclavicle -1.95803e-014 1.41137e-014
lhumerus -38.2332 7.41708 81.1681
lradius 69.0872
lwrist 5.4746
lhand -10.3976 21.6546
lfingers 7.12502
lthumb 15.6008 51.0455
rfemur -42.0117 -8.24599 19.739
rtibia 100.64
rfoot -8.84522 5.58149
rtoes -15.7867
lfemur -7.62502 -3.58148 -25.9344
ltibia 13.7745
lfoot -7.6363 -5.29493
ltoes -4.59736
215
root 15.9471 20.0151 10.2667 7.10325 -4.75788 1.10454
lowerback 8.41658 1.05361 -2.92792
upperback 0.584631 1.09318 -0.676033
thorax -4.15623 0.587912 0.814862
lowerneck -11.0499 16.4135 12.4496
upperneck 30.7349 28.1411 -17.9819
head 18.1626 11.4234 -3.85236
rclavicle -2.69353e-014 -1.78906e-015
rhumerus -41.8374 2.69474 -89.7946
rradius 58.6056
rwrist -5.09796
rhand -15.1018 23.5361
rfingers 7.12502
rthumb 11.0665 -6.15211
lclavicle -2.69353e-014 -1.78906e-015
lhumerus -38.2948 7.1103 81.0173
lradius 69.0278
lwrist 5.5388
lhand -9.42127 23.8769
lfingers 7.12502
lthumb 16.5409 53.1919
rfemur -43.4264 -8.3551 19.6612
rtibia 99.9536
rfoot -9.39832 5.11718
rtoes -15.6519
lfemur -6.78827 -3.27088 -26.2809
ltibia 12.285
lfoot -6.73933 -5.6023
ltoes -3.15842
